<?xml version="1.0" standalone="no"?>
<!DOCTYPE svg PUBLIC "-//W3C//DTD SVG 20010904//EN"
 "http://www.w3.org/TR/2001/REC-SVG-20010904/DTD/svg10.dtd">
<svg version="1.0" xmlns="http://www.w3.org/2000/svg"
 width="2798.000000pt" height="2766.000000pt" viewBox="0 0 2798.000000 2766.000000"
 preserveAspectRatio="xMidYMid meet">

<g transform="translate(0.000000,2766.000000) scale(0.100000,-0.100000)"
fill="#000000" stroke="none">
<path d="M8085 27639 c-566 -42 -1115 -191 -1620 -439 -1046 -515 -1838 -1425
-2193 -2520 -42 -129 -706 -2590 -700 -2595 2 -2 52 56 112 127 320 382 886
970 1236 1284 1324 1191 2784 2069 4429 2664 770 278 1658 505 2446 626 241
36 278 43 260 50 -91 31 -2694 704 -2817 728 -379 76 -787 102 -1153 75z"/>
<path d="M13550 25804 c-669 -30 -1225 -92 -1805 -200 -2195 -407 -4227 -1408
-5901 -2905 -180 -161 -718 -696 -875 -869 -960 -1064 -1711 -2260 -2235
-3555 -1274 -3153 -1134 -6707 383 -9745 495 -992 1098 -1873 1852 -2710 157
-173 695 -708 875 -869 1253 -1121 2692 -1957 4281 -2487 1021 -340 1992 -527
3155 -606 246 -17 1184 -17 1430 0 1021 70 1872 219 2775 486 1798 532 3478
1494 4839 2771 176 166 558 552 697 705 1142 1263 1987 2715 2513 4317 692
2110 773 4411 230 6578 -284 1134 -732 2211 -1342 3228 -395 660 -871 1301
-1401 1887 -139 153 -521 539 -697 705 -1247 1170 -2759 2075 -4394 2630
-1027 348 -2039 546 -3200 625 -151 11 -1030 21 -1180 14z m-2600 -3218 c810
-105 1520 -457 2075 -1027 469 -482 784 -1081 909 -1728 80 -414 82 -867 5
-1271 -286 -1498 -1520 -2624 -3053 -2785 -185 -19 -519 -19 -701 0 -691 73
-1302 322 -1838 748 -121 96 -348 316 -456 442 -450 525 -723 1149 -806 1840
-21 169 -24 528 -7 695 104 992 592 1847 1393 2438 482 356 1095 592 1684 651
61 6 124 13 140 15 72 10 537 -3 655 -18z m8600 -1647 c597 -54 1200 -276
1688 -622 242 -171 521 -433 696 -652 436 -547 682 -1161 747 -1865 14 -156 6
-532 -16 -690 -87 -643 -327 -1211 -723 -1710 -107 -134 -426 -449 -562 -554
-520 -402 -1095 -639 -1755 -722 -170 -22 -584 -25 -750 -6 -842 97 -1551 437
-2127 1019 -265 267 -450 523 -618 855 -264 518 -382 1043 -367 1621 6 233 23
388 68 604 312 1513 1622 2637 3183 2732 154 10 357 6 536 -10z m-5355 -5699
c300 -51 582 -193 801 -402 306 -293 474 -683 474 -1099 0 -719 -504 -1330
-1228 -1492 -83 -18 -128 -21 -312 -21 -184 0 -229 3 -313 22 -556 124 -989
510 -1155 1032 -57 180 -67 247 -67 460 0 168 3 210 23 298 71 317 196 548
416 768 223 222 478 362 772 423 133 27 136 28 316 30 116 1 186 -4 273 -19z
m-5065 -1710 c822 -93 1548 -443 2112 -1016 284 -289 457 -533 638 -899 138
-279 217 -507 279 -802 54 -254 66 -380 66 -688 0 -332 -19 -499 -86 -785
-296 -1250 -1279 -2234 -2544 -2545 -279 -69 -518 -97 -820 -97 -231 -1 -376
11 -595 48 -1391 233 -2499 1283 -2803 2654 -96 430 -102 922 -16 1360 106
545 335 1045 679 1480 113 142 429 455 570 564 567 439 1220 688 1940 740 93
7 479 -3 580 -14z m8675 -1655 c691 -73 1302 -322 1838 -748 121 -96 348 -316
456 -442 646 -754 933 -1735 792 -2701 -60 -406 -197 -814 -387 -1158 -627
-1127 -1831 -1815 -3119 -1783 -306 8 -529 38 -810 112 -622 162 -1164 478
-1610 936 -465 478 -776 1065 -905 1709 -46 232 -63 408 -64 660 0 240 10 360
50 589 259 1504 1502 2657 3047 2825 169 19 540 19 712 1z"/>
<path d="M22157 24104 c1110 -873 2085 -1930 2858 -3099 323 -489 589 -954
846 -1480 594 -1215 988 -2496 1183 -3843 l33 -227 16 55 c20 69 728 2705 757
2819 132 521 163 1067 89 1606 -202 1485 -1180 2762 -2569 3355 -272 117 -488
179 -1938 559 -777 204 -1415 371 -1418 371 -3 0 62 -52 143 -116z"/>
<path d="M772 11678 c-6 -24 -151 -563 -322 -1198 -170 -635 -321 -1204 -335
-1265 -172 -768 -129 -1563 126 -2301 397 -1150 1261 -2078 2379 -2554 179
-76 386 -148 595 -205 351 -96 2457 -646 2461 -643 2 3 -54 50 -124 105 -592
469 -1281 1135 -1797 1738 -992 1159 -1772 2479 -2309 3904 -282 748 -485
1495 -636 2336 -12 66 -23 121 -25 123 -1 1 -7 -17 -13 -40z"/>
<path d="M24487 5900 c-50 -71 -279 -354 -411 -509 -415 -489 -930 -1010
-1411 -1427 -1867 -1620 -4115 -2678 -6550 -3084 -137 -23 -251 -43 -252 -44
-4 -4 2671 -704 2792 -731 479 -107 1003 -132 1490 -69 801 103 1541 416 2175
919 649 515 1145 1230 1398 2015 41 128 805 2960 800 2965 -2 2 -15 -14 -31
-35z"/>
</g>
</svg>
